<svg width="21" height="20" viewBox="0 0 21 20" fill="none" xmlns="http://www.w3.org/2000/svg">
<circle cx="10.1189" cy="10" r="9.5" stroke="#29292B"/>
<circle cx="10.1189" cy="5.97538" r="2.94022" stroke="#29292B"/>
<path d="M15.6726 13.3579C15.6726 14.0276 15.1915 14.7323 14.1989 15.2979C13.2207 15.8552 11.8359 16.2158 10.2792 16.2158C8.72238 16.2158 7.3376 15.8552 6.35941 15.2979C5.3668 14.7323 4.88574 14.0276 4.88574 13.3579C4.88574 12.6882 5.3668 11.9835 6.35941 11.4179C7.3376 10.8606 8.72238 10.5 10.2792 10.5C11.8359 10.5 13.2207 10.8606 14.1989 11.4179C15.1915 11.9835 15.6726 12.6882 15.6726 13.3579Z" stroke="#29292B"/>
<g clip-path="url(#clip0_1737_4921)">
<circle cx="16.8603" cy="3.25851" r="3.25851" fill="#29292B"/>
<path d="M14.7805 0.0791016C14.9379 1.20848 15.0952 2.07269 15.0952 3.21189C15.0952 4.35108 14.9379 5.22512 14.7805 6.36431H15.0755L15.4689 4.57695C15.6065 3.94843 15.8524 3.56543 16.4817 3.56543H17.2389C17.8682 3.56543 18.1141 3.94843 18.2517 4.57695L18.6451 6.36431H18.9401C18.7631 5.10727 18.6057 4.35108 18.6057 2.87798H16.4817C15.8524 2.87798 15.6065 2.49498 15.4689 1.86646L15.0755 0.0791016H14.7805Z" fill="#EDEAE5"/>
</g>
<defs>
<clipPath id="clip0_1737_4921">
<rect x="13.6018" width="6.51701" height="6.51701" rx="3.25851" fill="white"/>
</clipPath>
</defs>
</svg>
