<svg width="1178" height="368" viewBox="0 0 1178 368" fill="none" xmlns="http://www.w3.org/2000/svg">
<path d="M1113.66 367.631C1101.05 367.631 1090.59 365.141 1082.3 360.162C1074.33 355.183 1068.35 347.383 1064.37 336.761C1060.72 325.807 1058.89 311.866 1058.89 294.937V118.679H1021.05V111.211C1031.01 111.211 1039.31 109.385 1045.95 105.734C1052.92 101.751 1058.56 94.946 1062.88 85.3199C1067.52 75.3618 1070.84 61.2546 1072.83 42.9981L1082.79 41.5044L1083.29 42.9981V107.726H1159.97V118.679H1083.29V298.92C1083.29 318.836 1086.44 332.446 1092.75 339.748C1099.39 347.051 1109.51 350.702 1123.12 350.702C1131.42 350.702 1139.72 348.877 1148.02 345.225C1156.65 341.242 1164.78 335.267 1172.42 327.301L1177.89 332.28C1168.6 344.561 1158.64 353.524 1148.02 359.167C1137.73 364.809 1126.28 367.631 1113.66 367.631Z" fill="#29292B"/>
<path d="M864.455 367.631C843.211 367.631 826.282 361.988 813.669 350.702C801.387 339.416 795.246 323.151 795.246 301.908C795.246 284.979 799.562 270.872 808.192 259.586C817.154 248.3 831.759 239.504 852.007 233.197C872.587 226.89 900.802 223.239 936.651 222.243V172.453C936.651 157.184 934.327 145.234 929.68 136.604C925.365 127.642 918.892 121.169 910.262 117.186C901.632 113.202 891.342 111.211 879.392 111.211C867.774 111.211 857.152 112.704 847.526 115.692C838.232 118.679 830.266 122.828 823.627 128.139C827.278 134.778 830.1 140.255 832.091 144.57C834.083 148.553 835.411 151.873 836.074 154.528C837.07 157.184 837.568 159.673 837.568 161.997C837.568 166.976 835.742 171.125 832.091 174.444C828.44 177.432 823.461 178.926 817.154 178.926C811.511 178.926 806.698 177.1 802.715 173.449C798.732 169.797 796.74 164.818 796.74 158.512C796.74 145.898 801.055 135.442 809.686 127.144C818.648 118.513 829.436 112.041 842.049 107.725C854.995 103.078 868.106 100.755 881.384 100.755C900.968 100.755 916.569 104.24 928.186 111.211C939.804 117.849 948.103 127.144 953.082 139.093C958.393 150.711 961.048 164.652 961.048 180.917V323.815C961.048 333.441 962.874 340.412 966.525 344.727C970.508 349.042 976.151 351.2 983.454 351.2C988.765 351.2 993.578 350.37 997.893 348.71C1002.54 346.719 1006.52 344.561 1009.84 342.238L1013.83 347.217C1008.51 353.524 1002.71 358.503 996.399 362.154C990.092 365.805 982.956 367.631 974.989 367.631C964.367 367.631 955.405 364.477 948.103 358.171C941.132 351.532 937.813 340.246 938.145 324.313C932.17 334.603 925.365 343.068 917.73 349.706C910.096 356.013 901.798 360.494 892.835 363.15C884.205 366.137 874.745 367.631 864.455 367.631ZM872.421 352.196C883.043 352.196 893.167 350.038 902.793 345.723C912.751 341.408 920.884 334.769 927.191 325.807C933.497 316.845 936.651 306.057 936.651 293.443V232.201C908.104 233.197 885.201 235.852 867.94 240.168C851.011 244.151 838.896 250.79 831.593 260.084C824.291 269.046 820.639 281.66 820.639 297.924C820.639 316.181 825.286 329.79 834.581 338.752C844.207 347.715 856.82 352.196 872.421 352.196Z" fill="#29292B"/>
<path d="M491.14 360.66V353.192L517.031 350.702C522.342 350.038 525.828 348.379 527.487 345.723C529.147 343.068 529.977 337.259 529.977 328.296V151.043C529.977 138.761 528.981 130.629 526.989 126.646C524.998 122.662 520.517 120.505 513.546 120.173L489.647 117.683L490.145 110.713L551.387 104.738L553.876 107.228V153.532H554.872C562.838 135.608 574.622 122.331 590.223 113.7C605.824 105.07 622.753 100.755 641.009 100.755C657.606 100.755 671.381 103.908 682.335 110.215C693.289 116.522 701.421 125.65 706.732 137.6C712.375 149.217 715.197 163.656 715.197 180.917V330.288C715.197 337.591 716.193 342.736 718.184 345.723C720.176 348.379 724.325 350.038 730.632 350.702L754.033 353.192V360.66H651.963V353.192L675.862 350.702C682.169 350.038 686.152 348.379 687.812 345.723C689.804 342.736 690.799 337.425 690.799 329.79V183.905C690.799 168.636 688.808 156.188 684.825 146.562C680.841 136.604 674.535 129.301 665.904 124.654C657.274 119.675 646.32 117.186 633.043 117.186C618.106 117.186 604.662 120.339 592.713 126.646C580.763 132.952 571.303 141.749 564.332 153.035C557.693 164.32 554.374 177.432 554.374 192.369V329.292C554.374 336.927 555.204 342.238 556.864 345.225C558.523 348.213 561.843 350.038 566.822 350.702L594.206 353.192V360.66H491.14Z" fill="#29292B"/>
<path d="M369.104 367.631C349.519 367.631 332.093 362.984 316.824 353.689C301.555 344.063 289.605 329.624 280.975 310.372C272.344 290.788 268.029 265.893 268.029 235.686C268.029 208.468 272.344 184.9 280.975 164.984C289.605 144.736 301.555 128.969 316.824 117.683C332.425 106.398 350.681 100.755 371.593 100.755C389.518 100.755 404.455 104.572 416.404 112.207C428.686 119.509 437.98 129.633 444.287 142.579C450.594 155.524 453.747 170.295 453.747 186.892C453.747 192.535 453.581 198.676 453.249 205.314C453.249 211.953 452.751 218.592 451.755 225.23H292.427C291.763 255.105 295.248 279.004 302.883 296.929C310.849 314.853 321.305 327.799 334.25 335.765C347.528 343.399 361.967 347.217 377.568 347.217C391.177 347.217 403.791 344.727 415.409 339.748C427.358 334.769 438.81 326.471 449.764 314.853L454.743 319.832C442.461 337.093 429.184 349.374 414.911 356.677C400.637 363.979 385.368 367.631 369.104 367.631ZM292.924 213.779H427.856C428.52 208.468 428.852 203.655 428.852 199.34C429.184 195.024 429.35 190.709 429.35 186.394C429.35 160.835 424.371 141.915 414.413 129.633C404.787 117.352 390.181 111.211 370.597 111.211C355.66 111.211 342.549 114.862 331.263 122.165C320.309 129.467 311.513 140.753 304.874 156.022C298.235 171.291 294.252 190.543 292.924 213.779Z" fill="#29292B"/>
<path d="M0.278076 360.66V353.192L31.1481 350.204C37.4548 349.54 41.604 347.715 43.5956 344.727C45.5873 341.408 46.5831 335.433 46.5831 326.803V34.5337C46.5831 25.5714 45.4213 19.5966 43.0977 16.6092C41.1061 13.2898 36.791 11.2982 30.1523 10.6343L0.278076 8.14484V0.67627H108.323C124.588 0.67627 139.359 2.00401 152.636 4.6595C166.246 6.98306 178.029 10.6343 187.988 15.6134C197.946 20.5924 206.244 26.8992 212.883 34.5337C219.521 41.8363 224.5 50.6325 227.82 60.9225C231.139 71.2125 232.799 82.6643 232.799 95.2778C232.799 108.887 231.305 121.335 228.318 132.621C225.33 143.906 220.683 154.03 214.376 162.993C208.07 171.623 200.103 179.092 190.477 185.398C180.851 191.373 169.399 196.02 156.122 199.34C142.844 202.327 127.575 203.821 110.315 203.821C101.684 203.821 94.2158 203.655 87.909 203.323C81.6022 202.659 75.9593 202.161 70.9803 201.829V327.301C70.9803 335.267 72.1421 341.076 74.4656 344.727C77.1211 348.379 81.9342 350.37 88.9048 350.702L137.699 353.192V360.66H0.278076ZM109.817 192.867C141.351 192.867 165.25 186.062 181.515 172.453C198.112 158.512 206.41 133.616 206.41 97.7674C206.41 76.1916 202.427 59.0969 194.46 46.4833C186.826 33.8698 175.54 24.9076 160.603 19.5966C145.666 13.9537 127.409 11.1322 105.834 11.1322H70.9803V190.875C76.2913 191.539 82.1001 192.037 88.4069 192.369C94.7137 192.701 101.85 192.867 109.817 192.867Z" fill="#29292B"/>
</svg>
